<svg xmlns="http://www.w3.org/2000/svg" width="400" height="400" viewBox="0 0 400 400" fill="none">
  <rect width="400" height="400" fill="#f3f4f6"/>
  <g transform="translate(160, 160)">
    <path d="M80 60H20C14.4772 60 10 55.5228 10 50V20C10 14.4772 14.4772 10 20 10H50L60 0H70L80 10C85.5228 10 90 14.4772 90 20V50C90 55.5228 85.5228 60 80 60Z" fill="#9ca3af"/>
    <circle cx="50" cy="35" r="15" fill="#6b7280"/>
    <path d="M20 50L30 40L40 50L50 40L60 50H80V50V50C80 55.5228 75.5228 60 70 60H20C14.4772 60 10 55.5228 10 50V50H20Z" fill="#6b7280"/>
  </g>
  <text x="200" y="230" text-anchor="middle" fill="#6b7280" font-family="Arial, sans-serif" font-size="14">
    Sin imagen
  </text>
</svg>
